# xmcd CD database file generated by Grip 3.2.0
# 
# Track frame offsets:
#       205
#       12077
#       24642
#       36247
#       47817
#       59435
#       69457
#       80862
#       91245
#       100867
#       110427
#       121062
#       133172
#       143165
#       155632
#       167070
#       176412
#       185430
#       195557
#       203235
#       215885
# 
# Disc length: 3033 seconds
# 
# Revision: 3
# Processed by: cddbd v1.5.2PL0 Copyright (c) Steve Scherf et al.
# Submitted via: Grip 3.2.0
# 
DISCID=300bd715
DTITLE=Earl Hooker - Blue Guitar
DYEAR=1991
DGENRE=Blues
TTITLE0=Will My Man Be Home Tonight (Vocal by Lillian Offitt)
TTITLE1=Oh Mama (Vocal by Lillian Offitt)
TTITLE2=Calling All Blues
TTITLE3=Swear To Tell The Truth (Vocal by Harold Tidwell)
TTITLE4=Galloping Horses A Lazy Mule
TTITLE5=Blues In D Natural
TTITLE6=Universal Rock
TTITLE7=Apache War Dance
TTITLE8=Rocking With The Kid
TTITLE9=Rockin' Wild
TTITLE10=This Little Voice (Vocal by A.C. Reed)
TTITLE11=Blue Guitar
TTITLE12=How Long Can This Go On
TTITLE13=These Cotton Pickin' Blues
TTITLE14=That Man
TTITLE15=Win The Dance
TTITLE16=Crying Blues
TTITLE17=The Bright Sound
TTITLE18=Off The Hook
TTITLE19=Lotta Lovin' (Vocal by A.C. Reed)
TTITLE20=The Leading Brand
EXTD=Submitted 3/2/98\nJimster
EXTT0=
EXTT1=
EXTT2=
EXTT3=
EXTT4=
EXTT5=
EXTT6=
EXTT7=
EXTT8=
EXTT9=
EXTT10=
EXTT11=
EXTT12=
EXTT13=
EXTT14=
EXTT15=
EXTT16=
EXTT17=
EXTT18=
EXTT19=
EXTT20=
PLAYORDER=
